<?xml version="1.0" encoding="UTF-8"?>
<svg id="Layer_1" data-name="Layer 1" xmlns="http://www.w3.org/2000/svg" xmlns:xlink="http://www.w3.org/1999/xlink" viewBox="0 0 32 32">
  <defs>
    <style>
      .cls-1 {
        fill: url(#linear-gradient);
      }

      .cls-1, .cls-2, .cls-3, .cls-4, .cls-5 {
        stroke-width: 0px;
      }

      .cls-2 {
        fill: #cdcdcf;
      }

      .cls-3 {
        fill: #fefefe;
      }

      .cls-4 {
        fill: url(#linear-gradient-2);
      }

      .cls-5 {
        fill: url(#linear-gradient-3);
      }
    </style>
    <linearGradient id="linear-gradient" x1="16" y1="32" x2="16" y2="0" gradientUnits="userSpaceOnUse">
      <stop offset=".0265" stop-color="#231f20"/>
      <stop offset="1" stop-color="#3b3b3c"/>
    </linearGradient>
    <linearGradient id="linear-gradient-2" x1="4.5352" y1="17.114" x2="6.7356" y2="17.114" gradientUnits="userSpaceOnUse">
      <stop offset="0" stop-color="#fff"/>
      <stop offset="1" stop-color="#dcddde"/>
    </linearGradient>
    <linearGradient id="linear-gradient-3" x1="8.8693" y1="12.1848" x2="17.0005" y2="12.1848" xlink:href="#linear-gradient"/>
  </defs>
  <rect class="cls-1" width="32" height="32"/>
  <path class="cls-3" d="M27.1948,19.1693c0,.5431,0,1.0862,0,1.6293-5.959.0003-11.918.0006-17.877.0011-.0721,0-.1456-.0055-.2161.0059-.1449.0234-.23.1141-.23.2617,0,.1476.085.2384.2299.2617.0705.0114.144.0058.2161.0058,5.959.0005,11.918.0008,17.877.0011,0,.5431,0,1.0861,0,1.6292-5.959.0003-11.918.0006-17.8769.0011-.0721,0-.1456-.0055-.2161.0059-.1449.0234-.23.1141-.23.2617,0,.1476.085.2384.2299.2617.0705.0114.144.0058.2161.0058,5.959.0005,11.918.0008,17.8769.0011,0,.4386.0135.8777-.003,1.3156-.0269.7147-.4491,1.1322-1.1649,1.176-.1107.0068-.222.0054-.3331.0054-6.5642.0002-13.1283.0002-19.6925,0-.0666,0-.1332-.0029-.1997-.0044.0308-.0118.0608-.0263.0924-.0351.471-.1323.7393-.4408.8155-.9237.0236-.1493.0262-.2982.0262-.448,0-5.1298.0001-10.2596-.0001-15.3895,0-.3219-.0028-.6439-.0042-.9658.0011-.5997.0018-1.1995.0036-1.7992.0009-.3228.1088-.4324.4298-.4325,6.5365-.0004,13.0731-.0004,19.6096,0,.3054,0,.4262.1123.4262.4022.0006,4.0541,0,8.1082-.0005,12.1623,0,.0221-.0033.0442-.0051.0663-5.959.0003-11.9181.0006-17.8771.0011-.0721,0-.1456-.0055-.2161.0059-.1449.0234-.23.1141-.23.2617,0,.1476.085.2384.2299.2617.0705.0114.144.0058.2162.0058,5.959.0005,11.9181.0008,17.8771.001Z"/>
  <path class="cls-4" d="M5.8014,25.995c.0308-.0118.0608-.0263.0924-.0351.471-.1323.7393-.4408.8155-.9237.0236-.1493.0262-.2982.0262-.448,0-5.1298.0001-10.2596-.0001-15.3895,0-.3219-.0028-.6439-.0042-.9658-.4319.0022-.8637.0043-1.2956.0065-.1555-.0015-.311-.0043-.4664-.0041-.3237.0005-.434.108-.434.4278,0,5.332.0003,10.664.0014,15.996,0,.175-.0026.3509.0392.5229.0931.3832.4654.7349.8275.7826"/>
  <path class="cls-2" d="M27.1948,19.1693c-5.959-.0003-11.9181-.0006-17.8771-.001-.0721,0-.1456.0055-.2162-.0058-.145-.0233-.2299-.1141-.2299-.2617,0-.1476.0851-.2383.23-.2617.0705-.0114.144-.0058.2161-.0059,5.959-.0005,11.9181-.0008,17.8771-.0011,0,.1791,0,.3581,0,.5372Z"/>
  <path class="cls-2" d="M27.1947,21.3358c-5.959-.0003-11.918-.0006-17.877-.0011-.0721,0-.1456.0055-.2161-.0058-.145-.0233-.2299-.1141-.2299-.2617,0-.1476.0851-.2383.23-.2617.0705-.0114.144-.0059.2161-.0059,5.959-.0005,11.918-.0008,17.877-.0011,0,.1791,0,.3582,0,.5373Z"/>
  <path class="cls-2" d="M27.1946,23.5024c-5.959-.0003-11.918-.0006-17.8769-.0011-.0721,0-.1456.0055-.2161-.0058-.145-.0233-.2299-.1141-.2299-.2617,0-.1476.0851-.2383.23-.2617.0705-.0114.144-.0059.2161-.0059,5.959-.0005,11.918-.0008,17.8769-.0011,0,.1791,0,.3582,0,.5373Z"/>
  <path class="cls-5" d="M9.4372,16.2336c-.3395-.0027-.5665-.2252-.5679-.5617l.0028-6.9663c.0021-.3459.2295-.5685.5786-.5698h6.9668c.3579.002.58.223.5814.583l.0017,6.9368c-.0013.3571-.2248.5763-.5861.5783"/>
</svg>